PathFileType	4	(X/Y/Z)	T1_P1_Vision_NoMovement_2_0-682.trc
DataRate	CameraRate	NumFrames	NumMarkers	Units	OrigDataRate	OrigDataStartFrame	OrigNumFrames
60	60	4	27	m	60	341	682
Frame#	Time	RHip			RKnee			RAnkle			RBigToe			RSmallToe			RHeel			LHip			LKnee			LAnkle			LBigToe			LSmallToe			LHeel			Neck			Head			Nose			RShoulder			RElbow			RWrist			RThumb			RIndex			RPinky			LShoulder			LElbow			LWrist			LThumb			LIndex			LPinky		
		X1	Y1	Z1	X2	Y2	Z2	X3	Y3	Z3	X4	Y4	Z4	X5	Y5	Z5	X6	Y6	Z6	X7	Y7	Z7	X8	Y8	Z8	X9	Y9	Z9	X10	Y10	Z10	X11	Y11	Z11	X12	Y12	Z12	X13	Y13	Z13	X14	Y14	Z14	X15	Y15	Z15	X16	Y16	Z16	X17	Y17	Z17	X18	Y18	Z18	X19	Y19	Z19	X20	Y20	Z20	X21	Y21	Z21	X22	Y22	Z22	X23	Y23	Z23	X24	Y24	Z24	X25	Y25	Z25	X26	Y26	Z26	X27	Y27	Z27
342	5.7	-65.45666260794789	3766.19083661809	-545.4114679506157	287.0689584723521	3938.065190232351	-512.8495065166752	639.5800996140424	4136.637155687601	-525.4366140884799	688.7681939719122	3988.602781182137	-444.82183070517726	683.9343097402073	3936.7961765066325	-488.5594202237012	675.1413845862265	4177.964297991271	-528.2571400677577	-102.87530097276108	3903.2846230206264	-356.9834939139387	229.70419330641687	3972.248330897539	-365.76175005151333	621.5903195372904	4238.5511419580835	-446.36049031019684	666.9382449821708	3981.9957955836226	-343.90439112363805	676.3820362171648	4124.0443723464805	-344.0336921520906	669.2023768599526	4308.88033830693	-487.95099103796423	-676.1117275038675	3708.3067992254364	-520.7857213599184	-914.4653865485495	3540.0681862243887	-437.7766036693762	-776.2265307940602	3570.504316286834	-416.4734801208888	-562.0535559852601	3687.252801498676	-680.7142243139255	-286.43677505228777	3657.036430835245	-685.5010574363772	-25.99696774346235	3643.036376029394	-614.7972348141195	86.51090928138781	3744.269234200183	-562.3476448453434	112.24646483719472	3695.554103444859	-554.8524782282631	97.70186207121723	3626.9603171500803	-579.3312914109783	-606.4470335296193	3758.8528155501667	-363.0416276388367	-393.8909866144471	3981.583674417744	-346.32268888055756	-133.93582528507662	3942.5420418186623	-229.76936318725086	-1.5893818993927933	3834.7350268578552	-223.40957102874603	16.955685650964917	3879.945277986871	-202.22013578600664	-1.9087564049981185	3972.711843399521	-209.39282863703576
343	5.716666666666667	-65.22276786895819	3767.832307897367	-548.4934219098257	287.9277729753527	3937.797006038837	-513.3959544068517	640.513852694766	4143.895715232963	-526.5975646829994	693.2106403007457	3995.8394015172203	-448.8022475283387	685.6990031925027	3938.121124930744	-490.80989401493866	676.6448405168331	4185.614620935331	-530.0515380698669	-102.82065339390162	3905.2047511716946	-358.35872641177536	229.75615169547808	3972.4527670531247	-365.8388668092857	621.2980690631348	4232.522434621038	-442.03702816741253	668.958500796647	3979.5634674282605	-345.7461419070829	678.9305879388846	4125.133578102052	-344.17219453032203	669.2670883100056	4302.249231120782	-483.07600892364394	-675.7208094429197	3708.8751986159878	-522.1001848870548	-913.4488323744129	3540.7091245015454	-437.96571518106566	-775.6442368504439	3570.735168691443	-416.5510478815865	-562.0296091757003	3687.228150682122	-680.7274386345838	-286.4697590335759	3657.8887382340913	-685.7445955952464	-26.004496928110797	3643.132331012108	-614.8402435783457	86.66777710721374	3748.6865548556993	-563.4311369287252	112.09377520069441	3699.732590386563	-554.1013381443531	96.06091559752436	3626.3546387436213	-579.4400591921202	-606.9786079012259	3758.889208413467	-363.7954407931232	-395.1070344391358	3981.442534834038	-346.3875891267055	-133.99518416441387	3942.43639326256	-229.38323944019942	-1.5605443374008303	3835.0556567647923	-224.2690189928595	16.92659062954375	3878.8172862601127	-202.04248613188378	-1.9440331183064181	3972.684785077153	-209.13250449821567
344	5.733333333333333	-65.18986510639715	3766.3328387663196	-548.2794235816685	289.1462204335097	3934.5247963004977	-510.6788104506003	641.9750390290783	4151.8779916610965	-527.5145720555759	696.2224584738037	4003.305315708253	-453.15299715377506	686.8347462665615	3945.879744259731	-493.31852474224866	678.055802221042	4192.09321476256	-532.3855838265379	-102.8567365290556	3903.2061305803863	-357.011376204543	231.0493889572041	3972.685724378983	-365.7734550362868	621.9888375851131	4232.604853125447	-441.8925344741496	669.4094229794657	3979.2921883929284	-348.50477557734257	680.9579409497458	4126.0413331455	-344.23185751635873	669.326583351639	4298.84320650124	-480.61425002384595	-674.6812750335357	3706.8154728052414	-522.0386205724946	-912.4409950130448	3541.3283928321807	-438.15279890419754	-774.7732539311579	3571.1173493538786	-416.66536697100634	-562.008077430681	3687.228151727772	-680.7491115574071	-286.5890353151284	3660.1698881898265	-686.3885215535694	-25.982859515203227	3643.1844287938975	-614.8704632592409	86.72325634755309	3750.5299073541523	-563.8772525598597	111.9238210684525	3702.0836530571137	-553.2704103295998	95.48746866613281	3626.082802799691	-579.4594818917654	-608.0675236091439	3760.491882070537	-365.41395888101385	-395.0948090525301	3981.541791294554	-346.45029585302916	-134.04962033241372	3942.2719451863713	-228.87876905241097	-0.4909626637587442	3836.4492920909893	-225.821596916391	18.066965783898898	3883.575948546142	-203.0179330820828	-1.8856091937310522	3973.2914404077524	-210.2969932724829
345	5.75	-65.37549410868974	3763.2570707449877	-545.2051725947658	289.9364020355078	3932.7789683082638	-508.73095360892864	643.3497977081778	4156.0598023800585	-527.8714406715812	697.0572008123586	4009.3808329047165	-455.7595954265281	687.0600423897288	3955.6908396267904	-495.1740834893386	678.5895283698815	4191.874532178808	-534.0787934636857	-102.9631253212228	3897.600819342784	-353.1467408724453	232.5674221494766	3972.7236148992984	-365.61081433804145	622.9787226992878	4238.370445310215	-445.74912311009075	668.5999353967013	3979.9236943622927	-349.62805868616607	681.3555426661163	4126.209025525156	-344.0462687955514	669.3242875564146	4300.1379796834035	-481.3728578999543	-673.1522572619662	3700.3954483144153	-519.9101720570958	-912.401624369333	3541.3184958016677	-438.1571986675389	-774.4168303927003	3571.290881777154	-416.72353197522943	-561.9976289349187	3687.2458474104797	-680.773580714342	-286.7881197117061	3663.620911280207	-687.364563644786	-25.939536060880414	3643.158448515291	-614.8569856791686	86.63503274315927	3747.6829595763293	-563.1626548740389	111.73927000640893	3699.5913410312487	-552.0018469369459	95.83179473354356	3625.9514945538594	-579.3912658401738	-609.6637021389987	3764.8897202171215	-368.9599920492145	-393.8522700122165	3981.8209401176377	-346.4713332333902	-134.0725412971359	3942.1554048235726	-228.5343531124734	0.3214971730408275	3840.4235675112336	-227.30627240714858	18.967858070737783	3890.685281919465	-204.33865331652052	-1.7896567151525415	3974.2062361201984	-212.2889717801352
